<mxfile host="app.diagrams.net" modified="2021-06-17T12:38:38.962Z" agent="5.0 (Windows NT 10.0; Win64; x64) AppleWebKit/537.36 (KHTML, like Gecko) Chrome/91.0.4472.106 Safari/537.36" etag="Un2G3BeDBi8SAb6ymwcp" version="14.7.10" type="github">
  <diagram id="c3PoKptfpxndWjYiFI19" name="Page-1">
    <mxGraphModel dx="868" dy="1562" grid="1" gridSize="10" guides="1" tooltips="1" connect="1" arrows="1" fold="1" page="1" pageScale="1" pageWidth="827" pageHeight="1169" math="0" shadow="0">
      <root>
        <mxCell id="0" />
        <mxCell id="1" parent="0" />
        <mxCell id="c46ORi3hw54kBuzl--A7-1" value="Elève" style="shape=umlActor;verticalLabelPosition=bottom;verticalAlign=top;html=1;outlineConnect=0;" vertex="1" parent="1">
          <mxGeometry x="80" y="90" width="30" height="60" as="geometry" />
        </mxCell>
        <mxCell id="c46ORi3hw54kBuzl--A7-2" value="Bénévole" style="shape=umlActor;verticalLabelPosition=bottom;verticalAlign=top;html=1;outlineConnect=0;" vertex="1" parent="1">
          <mxGeometry x="80" y="230" width="30" height="60" as="geometry" />
        </mxCell>
        <mxCell id="c46ORi3hw54kBuzl--A7-3" value="Utilisateur" style="shape=umlActor;verticalLabelPosition=bottom;verticalAlign=top;html=1;outlineConnect=0;" vertex="1" parent="1">
          <mxGeometry x="160" y="160" width="30" height="60" as="geometry" />
        </mxCell>
        <mxCell id="c46ORi3hw54kBuzl--A7-4" value="System" style="swimlane;startSize=0;" vertex="1" parent="1">
          <mxGeometry x="240" y="-10" width="260" height="380" as="geometry" />
        </mxCell>
        <mxCell id="c46ORi3hw54kBuzl--A7-5" value="Inscription" style="ellipse;whiteSpace=wrap;html=1;" vertex="1" parent="c46ORi3hw54kBuzl--A7-4">
          <mxGeometry x="70" y="40" width="120" height="80" as="geometry" />
        </mxCell>
        <mxCell id="c46ORi3hw54kBuzl--A7-6" value="Connexion" style="ellipse;whiteSpace=wrap;html=1;" vertex="1" parent="c46ORi3hw54kBuzl--A7-4">
          <mxGeometry x="70" y="150" width="120" height="80" as="geometry" />
        </mxCell>
        <mxCell id="c46ORi3hw54kBuzl--A7-7" value="Réinitialisation mot de passe" style="ellipse;whiteSpace=wrap;html=1;" vertex="1" parent="c46ORi3hw54kBuzl--A7-4">
          <mxGeometry x="70" y="260" width="120" height="80" as="geometry" />
        </mxCell>
        <mxCell id="c46ORi3hw54kBuzl--A7-9" value="" style="endArrow=none;html=1;entryX=0;entryY=0.5;entryDx=0;entryDy=0;" edge="1" parent="1" source="c46ORi3hw54kBuzl--A7-3" target="c46ORi3hw54kBuzl--A7-5">
          <mxGeometry width="50" height="50" relative="1" as="geometry">
            <mxPoint x="390" y="220" as="sourcePoint" />
            <mxPoint x="440" y="170" as="targetPoint" />
          </mxGeometry>
        </mxCell>
        <mxCell id="c46ORi3hw54kBuzl--A7-10" value="" style="endArrow=none;html=1;" edge="1" parent="1" target="c46ORi3hw54kBuzl--A7-6">
          <mxGeometry width="50" height="50" relative="1" as="geometry">
            <mxPoint x="190" y="180" as="sourcePoint" />
            <mxPoint x="440" y="170" as="targetPoint" />
          </mxGeometry>
        </mxCell>
        <mxCell id="c46ORi3hw54kBuzl--A7-11" value="" style="endArrow=none;html=1;entryX=0.025;entryY=0.388;entryDx=0;entryDy=0;entryPerimeter=0;" edge="1" parent="1" target="c46ORi3hw54kBuzl--A7-7">
          <mxGeometry width="50" height="50" relative="1" as="geometry">
            <mxPoint x="190" y="180" as="sourcePoint" />
            <mxPoint x="440" y="170" as="targetPoint" />
          </mxGeometry>
        </mxCell>
        <mxCell id="c46ORi3hw54kBuzl--A7-12" value="" style="endArrow=classic;html=1;exitX=1;exitY=0.3333333333333333;exitDx=0;exitDy=0;exitPerimeter=0;" edge="1" parent="1" source="c46ORi3hw54kBuzl--A7-1">
          <mxGeometry width="50" height="50" relative="1" as="geometry">
            <mxPoint x="110" y="134" as="sourcePoint" />
            <mxPoint x="160" y="180" as="targetPoint" />
          </mxGeometry>
        </mxCell>
        <mxCell id="c46ORi3hw54kBuzl--A7-13" value="" style="endArrow=classic;html=1;exitX=1;exitY=0.3333333333333333;exitDx=0;exitDy=0;exitPerimeter=0;" edge="1" parent="1" source="c46ORi3hw54kBuzl--A7-2">
          <mxGeometry width="50" height="50" relative="1" as="geometry">
            <mxPoint x="390" y="220" as="sourcePoint" />
            <mxPoint x="160" y="180" as="targetPoint" />
          </mxGeometry>
        </mxCell>
      </root>
    </mxGraphModel>
  </diagram>
</mxfile>
